<svg width="236" height="412" viewBox="0 0 236 412" fill="none" xmlns="http://www.w3.org/2000/svg">
<circle cx="118.5" cy="289.5" r="62" fill="white" stroke="black" stroke-width="21"/>
<circle cx="118.5" cy="289.5" r="24.5" fill="black"/>
<path fill-rule="evenodd" clip-rule="evenodd" d="M33 135C33 88.0071 71.0071 50 118 50C164.993 50 203 88.0071 203 135C203 185.636 149.329 255.457 127.35 282.05C122.493 287.879 113.629 287.879 108.771 282.05C86.6714 255.457 33 185.636 33 135ZM87.6431 135C87.6431 151.757 101.243 165.357 118 165.357C134.757 165.357 148.357 151.757 148.357 135C148.357 118.243 134.757 104.643 118 104.643C101.243 104.643 87.6431 118.243 87.6431 135Z" fill="#FF0000"/>
</svg>
